<?xml version="1.0" encoding="UTF-8" standalone="no"?>
<svg width="169px" height="177px" viewBox="0 0 169 177" version="1.1" xmlns="http://www.w3.org/2000/svg" xmlns:xlink="http://www.w3.org/1999/xlink" xmlns:sketch="http://www.bohemiancoding.com/sketch/ns">
    <!-- Generator: Sketch 3.3.2 (12043) - http://www.bohemiancoding.com/sketch -->
    <title>URGENCIASDIGITALES</title>
    <desc>Created with Sketch.</desc>
    <defs></defs>
    <g id="Page-1" stroke="none" stroke-width="1" fill="none" fill-rule="evenodd" sketch:type="MSPage">
        <g id="01_home" sketch:type="MSArtboardGroup" transform="translate(-428.000000, -312.000000)">
            <g id="URGENCIASDIGITALES" sketch:type="MSLayerGroup" transform="translate(428.000000, 312.000000)">
                <path d="M160.481,30.67 C158.077,24.242 154.691,18.771 150.323,14.255 C145.955,9.742 140.73,6.159 134.647,3.755 C128.56,1.352 121.813,0.026 114.405,0.026 L79.472,0.026 C77.651,0.026 76.175,1.502 76.175,3.323 L76.175,64.676 C76.175,69.533 75.493,74.06 74.045,78.255 C72.598,82.451 70.521,86.095 67.773,89.186 C65.025,92.278 61.686,94.694 57.737,96.436 C53.786,98.179 49.314,99.049 44.309,99.049 C39.304,99.049 34.828,98.166 30.879,96.399 C26.928,94.633 23.593,92.204 20.87,89.112 C18.147,86.021 15.896,82.378 14.45,78.182 C13.002,73.987 12.115,69.46 12.115,64.602 L12.115,3.323 C12.115,1.502 10.639,0.026 8.818,0.026 L7.875,0.026 C6.054,0.026 4.578,1.502 4.578,3.323 L4.578,64.676 C4.578,70.416 5.628,75.779 7.444,80.759 C9.258,85.739 11.942,90.082 15.353,93.786 C18.763,97.492 22.945,100.399 27.828,102.509 C32.71,104.618 38.212,105.674 44.297,105.674 C50.38,105.674 55.873,104.618 60.757,102.509 C65.639,100.399 69.789,97.492 73.2,93.786 C76.61,90.082 79.198,85.739 81.014,80.759 C82.828,75.779 83.711,70.416 83.711,64.676 L83.711,9.918 C83.711,8.096 85.187,6.62 87.008,6.62 L114.405,6.62 C120.685,6.62 126.402,7.531 131.554,9.591 C136.707,11.652 141.11,14.586 144.766,18.511 C148.422,22.438 151.256,27.217 153.269,32.908 C155.28,38.6 156.286,45.063 156.286,52.324 C156.286,59.637 155.28,66.131 153.269,71.823 C151.256,77.516 148.422,82.32 144.766,86.246 C141.11,90.172 136.707,93.006 131.554,95.067 C126.402,97.128 120.685,98 114.405,98 L87.008,98 C85.187,98 83.711,99.476 83.711,101.297 C83.711,103.118 85.187,104.594 87.008,104.594 L114.405,104.594 C121.813,104.594 128.56,103.307 134.647,100.902 C140.73,98.498 145.955,94.996 150.323,90.481 C154.691,85.966 158.077,80.474 160.481,74.045 C162.884,67.617 164.088,60.369 164.088,52.32 C164.088,44.323 162.884,37.098 160.481,30.67" id="ud_IMAGO" fill="#F45151" sketch:type="MSShapeGroup"></path>
                <g id="ud_TXT" transform="translate(0.000000, 124.000000)" fill="#424041" sketch:type="MSShapeGroup">
                    <path d="M8.767,20.162 C9.675,20.162 10.486,20.009 11.201,19.703 C11.915,19.397 12.519,18.968 13.015,18.417 C13.51,17.866 13.888,17.208 14.147,16.442 C14.408,15.677 14.538,14.835 14.538,13.917 L14.538,0.583 L17.492,0.583 L17.492,13.917 C17.492,15.182 17.291,16.356 16.888,17.438 C16.484,18.52 15.908,19.456 15.158,20.246 C14.408,21.037 13.492,21.657 12.41,22.106 C11.328,22.555 10.114,22.779 8.767,22.779 C7.42,22.779 6.205,22.555 5.124,22.106 C4.042,21.657 3.123,21.037 2.368,20.246 C1.613,19.456 1.034,18.52 0.631,17.438 C0.228,16.356 0.026,15.182 0.026,13.917 L0.026,0.583 L2.98,0.583 L2.98,13.901 C2.98,14.819 3.11,15.662 3.371,16.427 C3.631,17.192 4.009,17.851 4.504,18.401 C4.999,18.953 5.605,19.384 6.325,19.695 C7.045,20.007 7.858,20.162 8.767,20.162" id="Fill-2"></path>
                    <path d="M25.851,13.365 L25.851,22.52 L22.896,22.52 L22.896,0.583 L29.096,0.583 C30.483,0.583 31.683,0.724 32.692,1.005 C33.703,1.285 34.537,1.69 35.195,2.222 C35.854,2.752 36.341,3.393 36.657,4.143 C36.974,4.893 37.132,5.732 37.132,6.661 C37.132,7.437 37.01,8.161 36.765,8.834 C36.519,9.508 36.165,10.112 35.701,10.648 C35.236,11.185 34.67,11.641 34.002,12.019 C33.333,12.397 32.575,12.682 31.729,12.876 C32.096,13.09 32.422,13.401 32.708,13.81 L39.106,22.52 L36.474,22.52 C35.933,22.52 35.535,22.31 35.279,21.892 L29.585,14.055 C29.411,13.81 29.223,13.634 29.019,13.526 C28.814,13.419 28.509,13.365 28.101,13.365 L25.851,13.365 L25.851,13.365 Z M25.851,11.207 L28.958,11.207 C29.825,11.207 30.588,11.103 31.246,10.894 C31.904,10.685 32.455,10.388 32.899,10.006 C33.344,9.623 33.678,9.166 33.902,8.636 C34.126,8.104 34.239,7.518 34.239,6.875 C34.239,5.568 33.808,4.584 32.945,3.921 C32.083,3.257 30.8,2.926 29.096,2.926 L25.851,2.926 L25.851,11.207 L25.851,11.207 Z" id="Fill-3"></path>
                    <path d="M51.384,20.361 C51.976,20.361 52.519,20.333 53.014,20.277 C53.509,20.221 53.976,20.137 54.414,20.024 C54.853,19.912 55.267,19.777 55.654,19.619 C56.042,19.461 56.43,19.279 56.817,19.075 L56.817,14.238 L53.419,14.238 C53.226,14.238 53.069,14.182 52.952,14.069 C52.835,13.957 52.776,13.819 52.776,13.656 L52.776,11.973 L59.512,11.973 L59.512,20.392 C58.961,20.79 58.387,21.137 57.79,21.433 C57.192,21.728 56.555,21.977 55.876,22.175 C55.197,22.374 54.471,22.522 53.695,22.619 C52.919,22.716 52.077,22.765 51.169,22.765 C49.577,22.765 48.117,22.491 46.791,21.945 C45.465,21.399 44.321,20.635 43.362,19.649 C42.402,18.665 41.655,17.483 41.119,16.106 C40.584,14.728 40.316,13.212 40.316,11.56 C40.316,9.886 40.578,8.359 41.104,6.982 C41.63,5.605 42.38,4.424 43.354,3.439 C44.329,2.454 45.508,1.69 46.891,1.149 C48.273,0.609 49.822,0.339 51.536,0.339 C52.404,0.339 53.21,0.402 53.955,0.53 C54.7,0.657 55.392,0.842 56.029,1.081 C56.667,1.321 57.257,1.611 57.798,1.953 C58.338,2.296 58.844,2.681 59.312,3.109 L58.471,4.456 C58.297,4.731 58.073,4.87 57.798,4.87 C57.634,4.87 57.455,4.814 57.262,4.701 C57.007,4.559 56.721,4.385 56.404,4.181 C56.088,3.977 55.703,3.78 55.249,3.592 C54.795,3.402 54.259,3.242 53.642,3.109 C53.023,2.977 52.292,2.91 51.444,2.91 C50.21,2.91 49.093,3.112 48.093,3.515 C47.092,3.918 46.24,4.494 45.536,5.245 C44.832,5.995 44.291,6.903 43.913,7.97 C43.535,9.036 43.347,10.232 43.347,11.56 C43.347,12.947 43.543,14.185 43.937,15.272 C44.329,16.358 44.883,17.279 45.597,18.034 C46.312,18.79 47.158,19.366 48.139,19.764 C49.118,20.162 50.199,20.361 51.384,20.361" id="Fill-4"></path>
                    <path d="M77.59,0.583 L77.59,3.002 L67.059,3.002 L67.059,10.289 L75.585,10.289 L75.585,12.615 L67.059,12.615 L67.059,20.101 L77.59,20.101 L77.59,22.52 L64.073,22.52 L64.073,0.583 L77.59,0.583" id="Fill-5"></path>
                    <path d="M83.981,0.683 C84.108,0.749 84.254,0.885 84.417,1.089 L97.123,17.621 C97.093,17.356 97.071,17.099 97.061,16.848 C97.052,16.598 97.046,16.356 97.046,16.121 L97.046,0.583 L99.648,0.583 L99.648,22.52 L98.148,22.52 C97.914,22.52 97.718,22.478 97.56,22.398 C97.4,22.315 97.245,22.178 97.093,21.983 L84.402,5.467 C84.423,5.722 84.437,5.972 84.448,6.217 C84.458,6.462 84.464,6.687 84.464,6.891 L84.464,22.52 L81.861,22.52 L81.861,0.583 L83.392,0.583 C83.657,0.583 83.854,0.617 83.981,0.683" id="Fill-6"></path>
                    <path d="M120.467,17.988 C120.63,17.988 120.778,18.055 120.911,18.188 L122.074,19.458 C121.177,20.499 120.087,21.311 118.807,21.892 C117.525,22.474 115.982,22.765 114.176,22.765 C112.594,22.765 111.16,22.491 109.874,21.945 C108.588,21.399 107.491,20.635 106.583,19.649 C105.675,18.665 104.971,17.483 104.471,16.106 C103.971,14.728 103.721,13.212 103.721,11.56 C103.721,9.906 103.988,8.391 104.524,7.013 C105.06,5.635 105.812,4.451 106.782,3.461 C107.751,2.472 108.912,1.703 110.265,1.157 C111.616,0.611 113.109,0.339 114.742,0.339 C116.355,0.339 117.745,0.589 118.913,1.089 C120.082,1.589 121.12,2.268 122.028,3.125 L121.064,4.487 C120.992,4.589 120.911,4.673 120.819,4.739 C120.728,4.806 120.595,4.839 120.421,4.839 C120.288,4.839 120.148,4.791 120,4.693 C119.853,4.597 119.676,4.477 119.473,4.334 C119.268,4.191 119.028,4.038 118.753,3.875 C118.478,3.712 118.15,3.559 117.773,3.415 C117.396,3.273 116.956,3.152 116.457,3.056 C115.956,2.959 115.38,2.91 114.727,2.91 C113.553,2.91 112.479,3.112 111.505,3.515 C110.53,3.918 109.69,4.492 108.986,5.237 C108.282,5.982 107.733,6.891 107.341,7.962 C106.948,9.033 106.751,10.232 106.751,11.56 C106.751,12.927 106.948,14.147 107.341,15.218 C107.733,16.289 108.27,17.195 108.948,17.935 C109.627,18.675 110.431,19.238 111.359,19.626 C112.287,20.015 113.288,20.208 114.359,20.208 C115.013,20.208 115.6,20.17 116.12,20.093 C116.641,20.017 117.122,19.897 117.566,19.733 C118.011,19.57 118.424,19.363 118.807,19.113 C119.189,18.863 119.574,18.565 119.962,18.218 C120.136,18.065 120.304,17.988 120.467,17.988" id="Fill-7"></path>
                    <path d="M126.529,0.583 L129.499,0.583 L129.499,22.519 L126.529,22.519 L126.529,0.583 Z" id="Fill-8"></path>
                    <path d="M153.425,22.52 L151.128,22.52 C150.862,22.52 150.648,22.453 150.485,22.32 C150.322,22.189 150.199,22.02 150.118,21.815 L148.066,16.519 L138.224,16.519 L136.173,21.815 C136.101,21.999 135.979,22.162 135.805,22.306 C135.632,22.448 135.417,22.52 135.162,22.52 L132.866,22.52 L141.638,0.583 L144.653,0.583 L153.425,22.52 L153.425,22.52 Z M139.051,14.376 L147.24,14.376 L143.796,5.451 C143.571,4.9 143.352,4.211 143.138,3.385 C143.025,3.804 142.915,4.189 142.809,4.541 C142.701,4.893 142.597,5.201 142.494,5.467 L139.051,14.376 L139.051,14.376 Z" id="Fill-9"></path>
                    <path d="M167.431,4.013 C167.339,4.165 167.242,4.28 167.14,4.356 C167.038,4.434 166.905,4.472 166.742,4.472 C166.568,4.472 166.367,4.385 166.137,4.211 C165.907,4.038 165.617,3.847 165.265,3.638 C164.912,3.429 164.489,3.237 163.994,3.064 C163.499,2.89 162.899,2.803 162.195,2.803 C161.532,2.803 160.945,2.893 160.436,3.071 C159.925,3.25 159.499,3.492 159.157,3.798 C158.814,4.105 158.558,4.464 158.384,4.877 C158.21,5.291 158.124,5.737 158.124,6.217 C158.124,6.829 158.274,7.337 158.575,7.74 C158.876,8.144 159.274,8.487 159.77,8.773 C160.264,9.059 160.825,9.307 161.453,9.516 C162.081,9.725 162.724,9.941 163.382,10.166 C164.04,10.391 164.683,10.644 165.311,10.924 C165.938,11.205 166.499,11.56 166.994,11.987 C167.489,12.416 167.888,12.942 168.188,13.565 C168.489,14.188 168.64,14.952 168.64,15.86 C168.64,16.82 168.477,17.721 168.15,18.563 C167.823,19.404 167.347,20.137 166.719,20.759 C166.091,21.382 165.32,21.871 164.407,22.228 C163.494,22.586 162.456,22.765 161.292,22.765 C159.874,22.765 158.58,22.507 157.412,21.991 C156.243,21.477 155.246,20.779 154.419,19.902 L155.276,18.493 C155.357,18.382 155.457,18.287 155.575,18.21 C155.692,18.134 155.822,18.096 155.965,18.096 C156.18,18.096 156.425,18.21 156.7,18.44 C156.976,18.67 157.32,18.922 157.733,19.197 C158.147,19.474 158.646,19.726 159.233,19.955 C159.82,20.186 160.537,20.3 161.384,20.3 C162.088,20.3 162.716,20.203 163.267,20.009 C163.818,19.815 164.285,19.542 164.668,19.19 C165.051,18.838 165.344,18.417 165.548,17.927 C165.752,17.438 165.855,16.892 165.855,16.289 C165.855,15.626 165.703,15.083 165.402,14.659 C165.102,14.235 164.706,13.881 164.216,13.595 C163.727,13.31 163.168,13.067 162.54,12.868 C161.912,12.669 161.27,12.465 160.611,12.256 C159.953,12.047 159.31,11.804 158.683,11.528 C158.055,11.253 157.496,10.896 157.006,10.457 C156.517,10.019 156.121,9.47 155.819,8.811 C155.519,8.153 155.368,7.34 155.368,6.37 C155.368,5.595 155.519,4.845 155.819,4.119 C156.121,3.396 156.557,2.752 157.129,2.19 C157.7,1.63 158.407,1.181 159.249,0.844 C160.091,0.507 161.058,0.339 162.149,0.339 C163.374,0.339 164.491,0.532 165.502,0.92 C166.513,1.309 167.395,1.869 168.15,2.605 L167.431,4.013" id="Fill-10"></path>
                    <path d="M29.57,40.717 C29.57,42.329 29.292,43.816 28.736,45.179 C28.18,46.541 27.396,47.72 26.386,48.715 C25.376,49.71 24.159,50.485 22.735,51.042 C21.311,51.598 19.732,51.876 17.997,51.876 L9.333,51.876 L9.333,29.572 L17.997,29.572 C19.732,29.572 21.311,29.854 22.735,30.414 C24.159,30.976 25.376,31.752 26.386,32.741 C27.396,33.731 28.18,34.907 28.736,36.27 C29.292,37.632 29.57,39.114 29.57,40.717 L29.57,40.717 Z M24.273,40.717 C24.273,39.614 24.131,38.619 23.845,37.731 C23.56,36.844 23.148,36.091 22.612,35.474 C22.077,34.856 21.421,34.382 20.646,34.05 C19.87,33.719 18.987,33.553 17.997,33.553 L14.538,33.553 L14.538,47.896 L17.997,47.896 C18.987,47.896 19.87,47.731 20.646,47.398 C21.421,47.067 22.077,46.593 22.612,45.975 C23.148,45.357 23.56,44.605 23.845,43.717 C24.131,42.829 24.273,41.829 24.273,40.717 L24.273,40.717 Z" id="Fill-11"></path>
                    <path d="M32.509,29.572 L37.714,29.572 L37.714,51.876 L32.509,51.876 L32.509,29.572 Z" id="Fill-12"></path>
                    <path d="M52.348,48.141 C53.062,48.141 53.694,48.08 54.246,47.957 C54.797,47.835 55.317,47.672 55.808,47.468 L55.808,44.084 L53.603,44.084 C53.276,44.084 53.021,43.998 52.838,43.824 C52.653,43.65 52.562,43.432 52.562,43.166 L52.562,40.318 L60.491,40.318 L60.491,49.732 C59.92,50.151 59.325,50.511 58.708,50.813 C58.091,51.113 57.433,51.36 56.733,51.555 C56.034,51.748 55.289,51.892 54.498,51.983 C53.707,52.075 52.857,52.121 51.949,52.121 C50.316,52.121 48.807,51.833 47.419,51.256 C46.03,50.68 44.829,49.884 43.813,48.868 C42.798,47.853 42.002,46.648 41.426,45.255 C40.849,43.862 40.561,42.35 40.561,40.717 C40.561,39.054 40.836,37.525 41.388,36.132 C41.938,34.739 42.727,33.537 43.752,32.527 C44.778,31.517 46.018,30.731 47.472,30.17 C48.927,29.608 50.552,29.327 52.348,29.327 C53.276,29.327 54.148,29.404 54.965,29.558 C55.781,29.71 56.534,29.92 57.223,30.185 C57.912,30.45 58.542,30.767 59.113,31.134 C59.685,31.501 60.195,31.899 60.645,32.328 L59.145,34.608 C59.001,34.823 58.83,34.991 58.632,35.114 C58.433,35.236 58.216,35.298 57.981,35.298 C57.675,35.298 57.358,35.195 57.032,34.991 C56.623,34.746 56.238,34.535 55.876,34.356 C55.514,34.178 55.144,34.032 54.767,33.92 C54.389,33.808 53.99,33.727 53.572,33.675 C53.153,33.624 52.685,33.599 52.164,33.599 C51.194,33.599 50.321,33.77 49.546,34.111 C48.771,34.453 48.109,34.935 47.563,35.558 C47.018,36.181 46.597,36.928 46.301,37.801 C46.005,38.673 45.857,39.646 45.857,40.717 C45.857,41.9 46.02,42.951 46.347,43.87 C46.674,44.788 47.125,45.565 47.702,46.197 C48.278,46.83 48.962,47.312 49.753,47.644 C50.544,47.976 51.408,48.141 52.348,48.141" id="Fill-13"></path>
                    <path d="M64.104,29.572 L69.309,29.572 L69.309,51.876 L64.104,51.876 L64.104,29.572 Z" id="Fill-14"></path>
                    <path d="M89.637,29.572 L89.637,33.675 L83.36,33.675 L83.36,51.876 L78.187,51.876 L78.187,33.675 L71.91,33.675 L71.91,29.572 L89.637,29.572" id="Fill-15"></path>
                    <path d="M110.089,51.876 L106.077,51.876 C105.628,51.876 105.259,51.772 104.968,51.563 C104.677,51.353 104.476,51.085 104.362,50.759 L103.046,46.87 L94.566,46.87 L93.25,50.759 C93.147,51.044 92.948,51.302 92.652,51.531 C92.356,51.761 91.994,51.876 91.565,51.876 L87.524,51.876 L96.158,29.572 L101.454,29.572 L110.089,51.876 L110.089,51.876 Z M95.76,43.35 L101.853,43.35 L99.802,37.242 C99.669,36.855 99.513,36.398 99.334,35.872 C99.156,35.347 98.979,34.777 98.807,34.165 C98.643,34.787 98.475,35.364 98.301,35.895 C98.128,36.426 97.965,36.885 97.811,37.272 L95.76,43.35 L95.76,43.35 Z" id="Fill-16"></path>
                    <path d="M117.068,47.743 L125.335,47.743 L125.335,51.876 L111.895,51.876 L111.895,29.572 L117.068,29.572 L117.068,47.743" id="Fill-17"></path>
                    <path d="M142.143,29.572 L142.143,33.553 L132.989,33.553 L132.989,38.757 L140,38.757 L140,42.584 L132.989,42.584 L132.989,47.896 L142.143,47.896 L142.143,51.876 L127.784,51.876 L127.784,29.572 L142.143,29.572" id="Fill-18"></path>
                    <path d="M157.511,34.103 C157.358,34.349 157.197,34.532 157.028,34.654 C156.86,34.777 156.644,34.839 156.378,34.839 C156.144,34.839 155.891,34.765 155.62,34.616 C155.35,34.469 155.044,34.303 154.702,34.119 C154.36,33.935 153.97,33.77 153.531,33.621 C153.092,33.474 152.592,33.399 152.031,33.399 C151.061,33.399 150.339,33.606 149.865,34.02 C149.391,34.433 149.153,34.991 149.153,35.695 C149.153,36.145 149.296,36.518 149.582,36.814 C149.867,37.109 150.242,37.364 150.707,37.578 C151.171,37.793 151.702,37.989 152.299,38.168 C152.895,38.347 153.506,38.546 154.128,38.765 C154.75,38.984 155.36,39.242 155.957,39.538 C156.555,39.834 157.085,40.212 157.549,40.671 C158.014,41.13 158.389,41.689 158.675,42.347 C158.96,43.005 159.103,43.799 159.103,44.728 C159.103,45.758 158.925,46.723 158.567,47.62 C158.21,48.519 157.692,49.302 157.014,49.97 C156.335,50.639 155.498,51.164 154.503,51.547 C153.508,51.93 152.378,52.121 151.112,52.121 C150.418,52.121 149.712,52.05 148.992,51.906 C148.272,51.764 147.576,51.563 146.902,51.302 C146.229,51.042 145.597,50.733 145.005,50.376 C144.412,50.019 143.897,49.621 143.458,49.182 L144.989,46.763 C145.102,46.579 145.26,46.432 145.464,46.319 C145.668,46.207 145.887,46.15 146.122,46.15 C146.428,46.15 146.736,46.248 147.048,46.441 C147.359,46.636 147.711,46.85 148.104,47.085 C148.497,47.319 148.948,47.534 149.459,47.728 C149.97,47.922 150.571,48.019 151.266,48.019 C152.204,48.019 152.934,47.811 153.454,47.398 C153.975,46.985 154.235,46.329 154.235,45.432 C154.235,44.911 154.092,44.487 153.807,44.161 C153.521,43.834 153.146,43.564 152.682,43.35 C152.217,43.135 151.688,42.946 151.097,42.783 C150.505,42.62 149.897,42.439 149.275,42.239 C148.652,42.041 148.046,41.796 147.454,41.505 C146.861,41.214 146.334,40.831 145.869,40.356 C145.405,39.883 145.03,39.291 144.744,38.581 C144.458,37.872 144.315,36.997 144.315,35.956 C144.315,35.119 144.484,34.303 144.821,33.507 C145.157,32.711 145.652,32.001 146.306,31.379 C146.959,30.757 147.76,30.259 148.709,29.887 C149.658,29.514 150.745,29.327 151.97,29.327 C152.653,29.327 153.319,29.381 153.967,29.488 C154.615,29.596 155.23,29.754 155.812,29.963 C156.394,30.172 156.937,30.422 157.442,30.713 C157.947,31.004 158.398,31.333 158.797,31.7 L157.511,34.103" id="Fill-19"></path>
                </g>
            </g>
        </g>
    </g>
</svg>